<svg data-name="Layer 1" xmlns="http://www.w3.org/2000/svg" viewBox="0 0 106 179"><path d="M101.59 136.45a4.4 4.4 0 114.41-4.4 4.4 4.4 0 01-4.41 4.4zm0-42.55a4.4 4.4 0 114.41-4.4 4.4 4.4 0 01-4.41 4.4zm0-42.55A4.4 4.4 0 11106 47a4.4 4.4 0 01-4.41 4.35zm0-42.55A4.4 4.4 0 11106 4.4a4.4 4.4 0 01-4.41 4.4zM69.2 179a4.4 4.4 0 114.4-4.4 4.4 4.4 0 01-4.4 4.4zm0-42.55a4.4 4.4 0 114.4-4.4 4.4 4.4 0 01-4.4 4.4zm0-42.55a4.4 4.4 0 114.4-4.4 4.4 4.4 0 01-4.4 4.4zm0-42.55A4.4 4.4 0 1173.6 47a4.4 4.4 0 01-4.4 4.35zm0-42.55a4.4 4.4 0 114.4-4.4 4.4 4.4 0 01-4.4 4.4zM36.8 179a4.4 4.4 0 114.41-4.4 4.4 4.4 0 01-4.41 4.4zm0-42.55a4.4 4.4 0 114.41-4.4 4.4 4.4 0 01-4.41 4.4zm0-42.55a4.4 4.4 0 114.41-4.4 4.4 4.4 0 01-4.41 4.4zm0-42.55A4.4 4.4 0 1141.21 47a4.4 4.4 0 01-4.41 4.35zm0-42.55a4.4 4.4 0 114.41-4.4 4.4 4.4 0 01-4.41 4.4zM4.41 179a4.4 4.4 0 114.4-4.4 4.4 4.4 0 01-4.4 4.4zm0-42.55a4.4 4.4 0 114.4-4.4 4.4 4.4 0 01-4.4 4.4zm0-42.55a4.4 4.4 0 114.4-4.4 4.4 4.4 0 01-4.4 4.4zm0-42.55A4.4 4.4 0 118.81 47a4.4 4.4 0 01-4.4 4.35zm0-42.55a4.4 4.4 0 114.4-4.4 4.4 4.4 0 01-4.4 4.4zm97.18 161.41a4.4 4.4 0 11-4.4 4.39 4.39 4.39 0 014.4-4.39z" fill="#fff" fill-rule="evenodd"/></svg>