<svg data-name="Layer 1" xmlns="http://www.w3.org/2000/svg" viewBox="0 0 179 106"><path d="M174.6 73.6a4.41 4.41 0 114.4-4.4 4.39 4.39 0 01-4.4 4.4zm0-32.39a4.41 4.41 0 114.4-4.41 4.4 4.4 0 01-4.4 4.41zm0-32.4a4.41 4.41 0 114.4-4.4 4.39 4.39 0 01-4.4 4.4zM132.05 106a4.41 4.41 0 114.4-4.41 4.4 4.4 0 01-4.4 4.41zm0-32.4a4.41 4.41 0 114.4-4.4 4.4 4.4 0 01-4.4 4.4zm0-32.39a4.41 4.41 0 114.4-4.41 4.41 4.41 0 01-4.4 4.41zm0-32.4a4.41 4.41 0 114.4-4.4 4.4 4.4 0 01-4.4 4.4zM89.5 106a4.41 4.41 0 114.4-4.41 4.4 4.4 0 01-4.4 4.41zm0-32.4a4.41 4.41 0 114.4-4.4 4.4 4.4 0 01-4.4 4.4zm0-32.39a4.41 4.41 0 114.4-4.41 4.41 4.41 0 01-4.4 4.41zm0-32.4a4.41 4.41 0 114.4-4.4 4.4 4.4 0 01-4.4 4.4zM47 106a4.41 4.41 0 114.4-4.41A4.4 4.4 0 0147 106zm0-32.4a4.41 4.41 0 114.4-4.4 4.4 4.4 0 01-4.4 4.4zm0-32.39a4.41 4.41 0 114.4-4.41 4.41 4.41 0 01-4.4 4.41zm0-32.4a4.41 4.41 0 114.4-4.4 4.4 4.4 0 01-4.4 4.4zM4.4 106a4.41 4.41 0 114.4-4.41A4.4 4.4 0 014.4 106zm0-32.4a4.41 4.41 0 114.4-4.4 4.4 4.4 0 01-4.4 4.4zm0-32.39a4.41 4.41 0 114.4-4.41 4.41 4.41 0 01-4.4 4.41zm0-32.4a4.41 4.41 0 114.4-4.4 4.4 4.4 0 01-4.4 4.4zm170.2 88.38a4.41 4.41 0 11-4.39 4.4 4.4 4.4 0 014.39-4.4z" fill="#fff" fill-rule="evenodd"/></svg>